<?xml version="1.0" encoding="UTF-8"?>
<svg width="1817px" height="98px" viewBox="0 0 1817 98" version="1.1" xmlns="http://www.w3.org/2000/svg" xmlns:xlink="http://www.w3.org/1999/xlink" xmlns:sketch="http://www.bohemiancoding.com/sketch/ns">
    <!-- Generator: Sketch 3.5.1 (25234) - http://www.bohemiancoding.com/sketch -->
    <title>logo</title>
    <desc>Created with Sketch.</desc>
    <defs></defs>
    <g id="Assets" stroke="none" stroke-width="1" fill="none" fill-rule="evenodd" sketch:type="MSPage">
        <g id="social-card" sketch:type="MSLayerGroup" transform="translate(-499.219225, -600.164457)" fill="#FFFFFF">
            <g id="logo" transform="translate(500.096957, 600.197630)" sketch:type="MSShapeGroup">
                <g id="lemonport-logo">
                    <path d="M31.160106,97.2331286 C26.9144256,97.2331286 22.8962526,96.4543814 19.1054665,94.8968635 C15.3146803,93.3393457 12.0167459,91.2256031 9.21156418,88.5555725 C6.40638246,85.8855419 4.16985221,82.7705529 2.50190632,79.2105121 C0.833960434,75.6504713 0,71.7938183 0,67.6404373 L0,10.9025705 C0,7.93586981 1.06140419,5.41421205 3.18424441,3.33752158 C5.30708463,1.2608311 7.88478052,0.222501439 10.9174094,0.222501439 C13.7984068,0.222501439 16.3381954,1.2608311 18.5368514,3.33752158 C20.7355073,5.41421205 21.8348188,7.93586981 21.8348188,10.9025705 L21.8348188,67.6404373 C21.8348188,69.8654628 22.7066865,71.7937893 24.4504481,73.4254747 C26.1942097,75.0571601 28.2032962,75.8729905 30.4777679,75.8729905 L166.945385,75.8729905 C169.978014,75.8729905 172.55571,76.9113202 174.67855,78.9880107 C176.801391,81.0647012 177.862795,83.5863589 177.862795,86.5530596 C177.862795,89.5197603 176.801391,92.041418 174.67855,94.1181085 C172.55571,96.194799 169.978014,97.2331286 166.945385,97.2331286 L31.160106,97.2331286 Z M200.607398,10.9025705 C200.607398,7.93586981 201.668802,5.41421205 203.791642,3.33752158 C205.914482,1.2608311 208.492178,0.222501439 211.524807,0.222501439 L372.784042,0.222501439 C375.816671,0.222501439 378.394367,1.2608311 380.517207,3.33752158 C382.640047,5.41421205 383.701451,7.93586981 383.701451,10.9025705 C383.701451,13.8692712 382.640047,16.3909289 380.517207,18.4676194 C378.394367,20.5443099 375.816671,21.5826395 372.784042,21.5826395 L211.524807,21.5826395 C208.492178,21.5826395 205.914482,20.5443099 203.791642,18.4676194 C201.668802,16.3909289 200.607398,13.8692712 200.607398,10.9025705 L200.607398,10.9025705 Z M228.355813,97.2331286 C225.019922,97.2331286 221.68408,96.5285478 218.348188,95.119365 C215.012296,93.7101821 212.055527,91.7447724 209.477793,89.2230769 C206.900058,86.7013813 204.77725,83.6605587 203.109304,80.1005179 C201.441358,76.5404771 200.607398,72.5354912 200.607398,68.0854402 L200.607398,48.0603107 C200.607398,44.0552648 201.782524,41.3852742 204.132811,40.0502589 C206.483099,38.7152436 210.160106,38.047746 215.163944,38.047746 L367.780229,38.047746 C370.812858,38.047746 373.390554,39.0860757 375.513394,41.1627661 C377.636234,43.2394566 378.697639,45.7611144 378.697639,48.727815 C378.697639,51.6945157 377.636234,54.2161735 375.513394,56.2928639 C373.390554,58.3695544 370.812858,59.4078841 367.780229,59.4078841 L222.442217,59.4078841 L222.442217,70.3104546 C222.442217,71.7938049 223.086641,73.091717 224.375508,74.2042298 C225.664375,75.3167425 227.370203,75.8729905 229.493043,75.8729905 L372.784042,75.8729905 C375.816671,75.8729905 378.394367,76.9113202 380.517207,78.9880107 C382.640047,81.0647012 383.701451,83.5863589 383.701451,86.5530596 C383.701451,89.5197603 382.640047,92.041418 380.517207,94.1181085 C378.394367,96.194799 375.816671,97.2331286 372.784042,97.2331286 L228.355813,97.2331286 Z M598.410503,86.5530596 C598.410503,89.5197603 597.349099,92.041418 595.226258,94.1181085 C593.103418,96.194799 590.525722,97.2331286 587.493093,97.2331286 C584.460465,97.2331286 581.882769,96.194799 579.759928,94.1181085 C577.637088,92.041418 576.575684,89.5197603 576.575684,86.5530596 L576.575684,38.047746 C576.575684,31.9660096 576.196611,28.925187 575.438454,28.925187 C574.831928,28.925187 572.70912,30.9276799 569.069965,34.9327258 L519.031839,90.5580855 C517.06063,92.783111 514.634563,94.4518551 511.753566,95.5643678 C508.872568,96.6768806 505.76417,97.2331286 502.428279,97.2331286 C499.092387,97.2331286 495.983989,96.6768806 493.102991,95.5643678 C490.221994,94.4518551 487.795927,92.783111 485.824718,90.5580855 L435.786592,34.9327258 C432.299069,30.9276799 430.17626,28.925187 429.418103,28.925187 C428.659946,28.925187 428.280873,31.9660096 428.280873,38.047746 L428.280873,86.5530596 C428.280873,89.5197603 427.219469,92.041418 425.096629,94.1181085 C422.973788,96.194799 420.396092,97.2331286 417.363464,97.2331286 C414.330835,97.2331286 411.753139,96.194799 409.630299,94.1181085 C407.507458,92.041418 406.446054,89.5197603 406.446054,86.5530596 L406.446054,21.5826395 C406.446054,15.6492382 408.18979,10.6059227 411.677313,6.45254172 C415.164836,2.29916076 419.941155,0.222501439 426.006413,0.222501439 C429.645567,0.222501439 432.905595,1.11249829 435.786592,2.8925187 C438.667589,4.67253911 441.3211,6.82336484 443.747203,9.34506042 L496.05979,67.6404373 C496.817947,68.3821125 497.765629,69.1608597 498.902865,69.9767024 C500.040101,70.7925451 501.215227,71.2004603 502.428279,71.2004603 C503.64133,71.2004603 504.816456,70.7925451 505.953692,69.9767024 C507.090928,69.1608597 508.03861,68.3821125 508.796767,67.6404373 L560.881908,9.34506042 L561.109354,9.34506042 C563.232194,6.52669477 565.80989,4.30170264 568.842519,2.67001726 C571.875148,1.03833189 575.21099,0.222501439 578.850144,0.222501439 C584.915402,0.222501439 589.691721,2.29916076 593.179244,6.45254172 C596.666767,10.6059227 598.410503,15.6492382 598.410503,21.5826395 L598.410503,86.5530596 Z M759.669738,75.8729905 C764.825207,75.8729905 769.070823,74.9459105 772.406715,73.0917226 C775.742607,71.2375346 778.35821,68.9754593 780.253603,66.3054287 C782.148996,63.6353981 783.437844,60.7058251 784.120186,57.5166219 C784.802527,54.3274186 785.143693,51.3978457 785.143693,48.727815 C785.143693,46.0577844 784.802527,43.1282114 784.120186,39.9390082 C783.437844,36.749805 782.148996,33.820232 780.253603,31.1502014 C778.35821,28.4801708 775.742607,26.2180954 772.406715,24.3639075 C769.070823,22.5097196 764.825207,21.5826395 759.669738,21.5826395 L667.781542,21.5826395 C662.474441,21.5826395 658.190917,22.5097196 654.930841,24.3639075 C651.670765,26.2180954 649.093069,28.4801708 647.197676,31.1502014 C645.302283,33.820232 644.013435,36.749805 643.331094,39.9390082 C642.648752,43.1282114 642.307586,46.0577844 642.307586,48.727815 C642.307586,51.3978457 642.648752,54.3274186 643.331094,57.5166219 C644.013435,60.7058251 645.302283,63.6353981 647.197676,66.3054287 C649.093069,68.9754593 651.670765,71.2375346 654.930841,73.0917226 C658.190917,74.9459105 662.474441,75.8729905 667.781542,75.8729905 L759.669738,75.8729905 Z M806.296174,48.727815 C806.296174,54.3645463 805.348491,60.0382763 803.453098,65.7491751 C801.557705,71.4600739 798.790473,76.6517222 795.151318,81.3242758 C791.512163,85.9968294 787.114918,89.8163992 781.959448,92.7830999 C776.803979,95.7498005 770.966256,97.2331286 764.446104,97.2331286 L660.730715,97.2331286 C654.513826,96.9364586 648.979361,95.2677145 644.127155,92.2268463 C639.274948,89.1859781 635.143054,85.3664082 631.731346,80.7680222 C628.319639,76.1696361 625.704035,71.0521542 623.884458,65.4154229 C622.064881,59.7786916 621.155106,54.2162113 621.155106,48.727815 C621.155106,43.0910837 622.102788,37.4173538 623.998181,31.706455 C625.893574,25.9955562 628.660807,20.8039079 632.299961,16.1313543 C635.939116,11.4588007 640.336362,7.63923089 645.491831,4.67253021 C650.6473,1.70582953 656.485023,0.222501439 663.005175,0.222501439 L766.720564,0.222501439 C772.937454,0.519171507 778.471918,2.18791561 783.324125,5.22878381 C788.176331,8.269652 792.308226,12.0892218 795.719933,16.6876079 C799.131641,21.2859939 801.747244,26.4034759 803.566821,32.0402071 C805.386399,37.6769384 806.296174,43.2394188 806.296174,48.727815 L806.296174,48.727815 Z M983.931522,10.9025705 C983.931522,7.93586981 984.992927,5.41421205 987.115767,3.33752158 C989.238607,1.2608311 991.816303,0.222501439 994.848932,0.222501439 C997.881561,0.222501439 1000.45926,1.2608311 1002.5821,3.33752158 C1004.70494,5.41421205 1005.76634,7.93586981 1005.76634,10.9025705 L1005.76634,75.6504891 C1005.76634,81.7322255 1003.68144,86.8497074 999.511575,91.0030884 C995.341711,95.1564693 990.148412,97.2331286 983.931522,97.2331286 C981.808682,97.2331286 979.723781,96.936463 977.676757,96.3431229 C975.629732,95.7497827 973.772275,94.9339523 972.104329,93.8956071 L867.934047,31.5952043 C865.05305,29.9635189 862.664891,28.6656068 860.769498,27.7014291 C858.874104,26.7372514 857.319905,26.2551697 856.106854,26.2551697 C853.832382,26.2551697 852.391905,27.6643314 851.785379,30.4826971 C851.178854,33.3010627 850.875595,37.380215 850.875595,42.7202762 L850.875595,86.5530596 C850.875595,89.5197603 849.814191,92.041418 847.691351,94.1181085 C845.568511,96.194799 842.990815,97.2331286 839.958186,97.2331286 C836.925557,97.2331286 834.347861,96.194799 832.225021,94.1181085 C830.102181,92.041418 829.040776,89.5197603 829.040776,86.5530596 L829.040776,21.805141 C829.040776,15.7234046 831.125678,10.6059227 835.295542,6.45254172 C839.465407,2.29916076 844.658706,0.222501439 850.875595,0.222501439 C852.998435,0.222501439 855.083337,0.519167057 857.130361,1.11250719 C859.177386,1.70584733 861.034843,2.52167778 862.702789,3.56002302 L966.87307,65.8604258 C969.754068,67.4921112 972.142227,68.7900233 974.03762,69.754201 C975.933013,70.7183787 977.487212,71.2004603 978.700264,71.2004603 C980.974735,71.2004603 982.415212,69.7912986 983.021738,66.972933 C983.628264,64.1545674 983.931522,60.0754151 983.931522,54.7353539 L983.931522,10.9025705 Z M1028.51094,10.9025705 C1028.51094,7.93586981 1029.57235,5.41421205 1031.69519,3.33752158 C1033.81803,1.2608311 1036.39572,0.222501439 1039.42835,0.222501439 L1175.66852,0.222501439 C1179.91421,0.222501439 1183.89447,1.00124869 1187.60944,2.55876654 C1191.32441,4.1162844 1194.58444,6.23002693 1197.38962,8.90005754 C1200.1948,11.5700882 1202.39343,14.6850771 1203.98556,18.245118 C1205.57769,21.8051588 1206.37374,25.6618118 1206.37374,29.8151928 C1206.37374,33.9685737 1205.57769,37.8252268 1203.98556,41.3852676 C1202.39343,44.9453084 1200.1948,48.0602974 1197.38962,50.730328 C1194.58444,53.4003586 1191.32441,55.5141011 1187.60944,57.071619 C1183.89447,58.6291368 1179.91421,59.4078841 1175.66852,59.4078841 L1057.39659,59.4078841 C1055.42538,59.7045542 1053.75746,60.594551 1052.39278,62.0779014 C1051.02809,63.5612517 1050.34576,65.4154118 1050.34576,67.6404373 L1050.34576,86.5530596 C1050.34576,89.5197603 1049.24645,92.041418 1047.0478,94.1181085 C1044.84914,96.194799 1042.30935,97.2331286 1039.42835,97.2331286 C1036.39572,97.2331286 1033.81803,96.194799 1031.69519,94.1181085 C1029.57235,92.041418 1028.51094,89.5197603 1028.51094,86.5530596 L1028.51094,65.1929215 C1028.51094,61.4845456 1029.19328,57.9616414 1030.55796,54.6241032 C1031.92264,51.2865649 1033.85591,48.3940751 1036.35783,45.9465471 C1038.85975,43.499019 1041.74071,41.5706925 1045.00078,40.1615097 C1048.26086,38.7523268 1051.86205,38.047746 1055.80447,38.047746 L1176.57831,38.047746 C1178.85278,38.047746 1180.86187,37.2689987 1182.60563,35.7114809 C1184.34939,34.153963 1185.22126,32.1885533 1185.22126,29.8151928 C1185.22126,27.5901673 1184.34939,25.6618407 1182.60563,24.0301554 C1180.86187,22.39847 1178.85278,21.5826395 1176.57831,21.5826395 L1039.42835,21.5826395 C1036.39572,21.5826395 1033.81803,20.5443099 1031.69519,18.4676194 C1029.57235,16.3909289 1028.51094,13.8692712 1028.51094,10.9025705 L1028.51094,10.9025705 Z M1367.63297,75.8729905 C1372.78844,75.8729905 1377.03406,74.9459105 1380.36995,73.0917226 C1383.70584,71.2375346 1386.32145,68.9754593 1388.21684,66.3054287 C1390.11223,63.6353981 1391.40108,60.7058251 1392.08342,57.5166219 C1392.76576,54.3274186 1393.10693,51.3978457 1393.10693,48.727815 C1393.10693,46.0577844 1392.76576,43.1282114 1392.08342,39.9390082 C1391.40108,36.749805 1390.11223,33.820232 1388.21684,31.1502014 C1386.32145,28.4801708 1383.70584,26.2180954 1380.36995,24.3639075 C1377.03406,22.5097196 1372.78844,21.5826395 1367.63297,21.5826395 L1275.74478,21.5826395 C1270.43768,21.5826395 1266.15415,22.5097196 1262.89408,24.3639075 C1259.634,26.2180954 1257.05631,28.4801708 1255.16091,31.1502014 C1253.26552,33.820232 1251.97667,36.749805 1251.29433,39.9390082 C1250.61199,43.1282114 1250.27082,46.0577844 1250.27082,48.727815 C1250.27082,51.3978457 1250.61199,54.3274186 1251.29433,57.5166219 C1251.97667,60.7058251 1253.26552,63.6353981 1255.16091,66.3054287 C1257.05631,68.9754593 1259.634,71.2375346 1262.89408,73.0917226 C1266.15415,74.9459105 1270.43768,75.8729905 1275.74478,75.8729905 L1367.63297,75.8729905 Z M1414.25941,48.727815 C1414.25941,54.3645463 1413.31173,60.0382763 1411.41633,65.7491751 C1409.52094,71.4600739 1406.75371,76.6517222 1403.11455,81.3242758 C1399.4754,85.9968294 1395.07815,89.8163992 1389.92268,92.7830999 C1384.76722,95.7498005 1378.92949,97.2331286 1372.40934,97.2331286 L1268.69395,97.2331286 C1262.47706,96.9364586 1256.9426,95.2677145 1252.09039,92.2268463 C1247.23818,89.1859781 1243.10629,85.3664082 1239.69458,80.7680222 C1236.28287,76.1696361 1233.66727,71.0521542 1231.84769,65.4154229 C1230.02812,59.7786916 1229.11834,54.2162113 1229.11834,48.727815 C1229.11834,43.0910837 1230.06602,37.4173538 1231.96142,31.706455 C1233.85681,25.9955562 1236.62404,20.8039079 1240.2632,16.1313543 C1243.90235,11.4588007 1248.2996,7.63923089 1253.45507,4.67253021 C1258.61054,1.70582953 1264.44826,0.222501439 1270.96841,0.222501439 L1374.6838,0.222501439 C1380.90069,0.519171507 1386.43515,2.18791561 1391.28736,5.22878381 C1396.13957,8.269652 1400.27146,12.0892218 1403.68317,16.6876079 C1407.09488,21.2859939 1409.71048,26.4034759 1411.53006,32.0402071 C1413.34963,37.6769384 1414.25941,43.2394188 1414.25941,48.727815 L1414.25941,48.727815 Z M1583.25181,59.4078841 C1587.34586,61.9295797 1591.51566,64.6366534 1595.76134,67.5291866 C1600.00702,70.4217198 1604.32845,73.5737919 1608.72576,76.9854977 C1610.39371,78.172178 1611.83419,79.5442565 1613.04724,81.1017743 C1614.26029,82.6592922 1614.86681,84.4763691 1614.86681,86.5530596 C1614.86681,89.5197603 1613.8054,92.041418 1611.68256,94.1181085 C1609.55972,96.194799 1606.98203,97.2331286 1603.9494,97.2331286 C1601.37166,97.2331286 1598.79397,96.194799 1596.21623,94.1181085 C1589.99934,89.6680575 1583.63092,85.366406 1577.11077,81.2130251 C1570.59061,77.0596441 1563.80521,73.3513239 1556.75435,70.0879531 C1549.70348,66.8245824 1542.38738,64.2287582 1534.80581,62.3004028 C1527.22423,60.3720473 1519.33952,59.4078841 1511.15142,59.4078841 L1465.88966,59.4078841 C1463.91845,59.7045542 1462.25053,60.594551 1460.88585,62.0779014 C1459.52116,63.5612517 1458.83883,65.4154118 1458.83883,67.6404373 L1458.83883,86.5530596 C1458.83883,89.5197603 1457.73952,92.041418 1455.54086,94.1181085 C1453.34221,96.194799 1450.80242,97.2331286 1447.92142,97.2331286 C1444.88879,97.2331286 1442.3111,96.194799 1440.18826,94.1181085 C1438.06542,92.041418 1437.00401,89.5197603 1437.00401,86.5530596 L1437.00401,65.1929215 C1437.00401,61.4845456 1437.72425,57.9616414 1439.16475,54.6241032 C1440.60525,51.2865649 1442.53852,48.3940751 1444.96462,45.9465471 C1447.39073,43.499019 1450.27168,41.5706925 1453.60757,40.1615097 C1456.94346,38.7523268 1460.58256,38.047746 1464.52498,38.047746 L1585.07138,38.047746 C1587.34585,38.047746 1589.35494,37.2689987 1591.0987,35.7114809 C1592.84246,34.153963 1593.71433,32.1885533 1593.71433,29.8151928 C1593.71433,27.5901673 1592.84246,25.6618407 1591.0987,24.0301554 C1589.35494,22.39847 1587.34585,21.5826395 1585.07138,21.5826395 L1447.92142,21.5826395 C1444.88879,21.5826395 1442.3111,20.5443099 1440.18826,18.4676194 C1438.06542,16.3909289 1437.00401,13.8692712 1437.00401,10.9025705 C1437.00401,7.93586981 1438.06542,5.41421205 1440.18826,3.33752158 C1442.3111,1.2608311 1444.88879,0.222501439 1447.92142,0.222501439 L1584.16159,0.222501439 C1588.40727,0.222501439 1592.38754,1.00124869 1596.10251,2.55876654 C1599.81748,4.1162844 1603.07751,6.23002693 1605.88269,8.90005754 C1608.68787,11.5700882 1610.88649,14.6850771 1612.47862,18.245118 C1614.07075,21.8051588 1614.86681,25.6618118 1614.86681,29.8151928 C1614.86681,33.9685737 1614.07075,37.8252268 1612.47862,41.3852676 C1610.88649,44.9453084 1608.68787,48.0602974 1605.88269,50.730328 C1603.07751,53.4003586 1599.81748,55.5141011 1596.10251,57.071619 C1592.38754,58.6291368 1588.40727,59.4078841 1584.16159,59.4078841 L1583.25181,59.4078841 Z M1805.01169,0.222501439 C1808.04432,0.222501439 1810.62201,1.2608311 1812.74485,3.33752158 C1814.86769,5.41421205 1815.9291,7.93586981 1815.9291,10.9025705 C1815.9291,13.8692712 1814.86769,16.3909289 1812.74485,18.4676194 C1810.62201,20.5443099 1808.04432,21.5826395 1805.01169,21.5826395 L1737.68766,21.5826395 L1737.68766,86.5530596 C1737.68766,89.5197603 1736.62626,92.041418 1734.50342,94.1181085 C1732.38058,96.194799 1729.80288,97.2331286 1726.77025,97.2331286 C1723.73762,97.2331286 1721.15993,96.194799 1719.03709,94.1181085 C1716.91425,92.041418 1715.85284,89.5197603 1715.85284,86.5530596 L1715.85284,21.5826395 L1647.61904,21.5826395 C1644.88967,21.2859695 1642.53942,20.1363902 1640.56821,18.1338672 C1638.597,16.1313443 1637.61141,13.7209361 1637.61141,10.9025705 C1637.61141,7.93586981 1638.67281,5.41421205 1640.79565,3.33752158 C1642.91849,1.2608311 1645.49619,0.222501439 1648.52882,0.222501439 L1805.01169,0.222501439 Z" id="Lemonport"></path>
                </g>
            </g>
        </g>
    </g>
</svg>